<svg width="129" height="34" viewBox="0 0 129 34" fill="none" xmlns="http://www.w3.org/2000/svg">
<path d="M59.4434 32.15C60.1401 32.15 60.7384 32 61.2384 31.7C61.7384 31.3967 62.1218 30.9817 62.3884 30.455C62.6584 29.9283 62.7934 29.325 62.7934 28.645C62.7934 28.625 62.7918 28.5633 62.7884 28.46C62.7851 28.3567 62.7801 28.2783 62.7734 28.225H60.2234V29.17H61.4934C61.4001 29.79 61.1834 30.255 60.8434 30.565C60.5034 30.8717 60.0618 31.0217 59.5184 31.015C58.7951 31.005 58.2518 30.7633 57.8884 30.29C57.5251 29.8167 57.3451 29.1867 57.3484 28.4C57.3518 27.8733 57.4334 27.4133 57.5934 27.02C57.7534 26.6267 57.9934 26.3217 58.3134 26.105C58.6334 25.8883 59.0351 25.7833 59.5184 25.79C59.9951 25.7933 60.3884 25.9217 60.6984 26.175C61.0118 26.4283 61.2368 26.7683 61.3734 27.195L62.6034 27C62.4201 26.26 62.0684 25.6833 61.5484 25.27C61.0318 24.8567 60.3301 24.65 59.4434 24.65C58.8034 24.65 58.2284 24.7983 57.7184 25.095C57.2118 25.3917 56.8101 25.82 56.5134 26.38C56.2201 26.94 56.0734 27.6133 56.0734 28.4C56.0734 29.2 56.2234 29.88 56.5234 30.44C56.8268 30.9967 57.2334 31.4217 57.7434 31.715C58.2534 32.005 58.8201 32.15 59.4434 32.15ZM67.7977 32H69.0027V29.485H70.7127L71.9327 32H73.2977L71.9677 29.27C72.3777 29.0867 72.6827 28.8083 72.8827 28.435C73.0827 28.0617 73.1827 27.6317 73.1827 27.145C73.1827 26.5483 73.0327 26.04 72.7327 25.62C72.436 25.1967 71.9743 24.9367 71.3477 24.84C71.2543 24.8233 71.1527 24.8133 71.0427 24.81C70.9327 24.8033 70.8427 24.8 70.7727 24.8H67.7977V32ZM69.0027 28.36V25.93H70.7227C70.7893 25.93 70.8643 25.9333 70.9477 25.94C71.031 25.9467 71.1077 25.9583 71.1777 25.975C71.3777 26.025 71.5343 26.115 71.6477 26.245C71.7643 26.3717 71.846 26.515 71.8927 26.675C71.9427 26.835 71.9677 26.9917 71.9677 27.145C71.9677 27.2983 71.9427 27.455 71.8927 27.615C71.846 27.775 71.7643 27.9183 71.6477 28.045C71.5343 28.1717 71.3777 28.26 71.1777 28.31C71.1077 28.33 71.031 28.3433 70.9477 28.35C70.8643 28.3567 70.7893 28.36 70.7227 28.36H69.0027ZM81.4442 32.15C82.1642 32.15 82.7809 31.9933 83.2942 31.68C83.8109 31.3633 84.2059 30.9233 84.4792 30.36C84.7559 29.7967 84.8942 29.1433 84.8942 28.4C84.8942 27.6533 84.7559 27 84.4792 26.44C84.2059 25.8767 83.8109 25.4383 83.2942 25.125C82.7809 24.8083 82.1642 24.65 81.4442 24.65C80.7276 24.65 80.1109 24.8083 79.5942 25.125C79.0809 25.4383 78.6859 25.8767 78.4092 26.44C78.1359 27 77.9992 27.6533 77.9992 28.4C77.9992 29.1433 78.1359 29.7967 78.4092 30.36C78.6859 30.9233 79.0809 31.3633 79.5942 31.68C80.1109 31.9933 80.7276 32.15 81.4442 32.15ZM81.4442 31.015C80.7209 31.005 80.1776 30.7633 79.8142 30.29C79.4509 29.8167 79.2709 29.1867 79.2742 28.4C79.2776 27.8733 79.3592 27.4133 79.5192 27.02C79.6792 26.6267 79.9192 26.3217 80.2392 26.105C80.5592 25.885 80.9609 25.7783 81.4442 25.785C82.1709 25.795 82.7142 26.0367 83.0742 26.51C83.4376 26.9833 83.6192 27.6133 83.6192 28.4C83.6192 28.9233 83.5376 29.3833 83.3742 29.78C83.2142 30.1733 82.9726 30.4783 82.6492 30.695C82.3292 30.9117 81.9276 31.0183 81.4442 31.015ZM92.9345 32.15C93.7611 32.15 94.4511 31.9433 95.0045 31.53C95.5611 31.1133 95.9511 30.5533 96.1745 29.85L94.9595 29.515C94.8195 29.9817 94.5811 30.3483 94.2445 30.615C93.9078 30.8817 93.4711 31.015 92.9345 31.015C92.2111 31.015 91.6661 30.7767 91.2995 30.3C90.9361 29.82 90.7545 29.1867 90.7545 28.4C90.7578 27.6133 90.9411 26.9817 91.3045 26.505C91.6678 26.025 92.2111 25.785 92.9345 25.785C93.4711 25.785 93.9078 25.9183 94.2445 26.185C94.5811 26.4517 94.8195 26.8183 94.9595 27.285L96.1745 26.95C95.9511 26.2433 95.5611 25.6833 95.0045 25.27C94.4511 24.8567 93.7611 24.65 92.9345 24.65C92.2178 24.65 91.6011 24.8083 91.0845 25.125C90.5711 25.4383 90.1761 25.8767 89.8995 26.44C89.6261 27 89.4895 27.6533 89.4895 28.4C89.4895 29.1433 89.6261 29.7967 89.8995 30.36C90.1761 30.9233 90.5711 31.3633 91.0845 31.68C91.6011 31.9933 92.2178 32.15 92.9345 32.15ZM101.272 32H105.922V30.87H102.477V28.835H105.322V27.705H102.477V25.93H105.922V24.8H101.272V32ZM111.122 32H112.327V29.485H114.037L115.257 32H116.622L115.292 29.27C115.702 29.0867 116.007 28.8083 116.207 28.435C116.407 28.0617 116.507 27.6317 116.507 27.145C116.507 26.5483 116.357 26.04 116.057 25.62C115.76 25.1967 115.299 24.9367 114.672 24.84C114.579 24.8233 114.477 24.8133 114.367 24.81C114.257 24.8033 114.167 24.8 114.097 24.8H111.122V32ZM112.327 28.36V25.93H114.047C114.114 25.93 114.189 25.9333 114.272 25.94C114.355 25.9467 114.432 25.9583 114.502 25.975C114.702 26.025 114.859 26.115 114.972 26.245C115.089 26.3717 115.17 26.515 115.217 26.675C115.267 26.835 115.292 26.9917 115.292 27.145C115.292 27.2983 115.267 27.455 115.217 27.615C115.17 27.775 115.089 27.9183 114.972 28.045C114.859 28.1717 114.702 28.26 114.502 28.31C114.432 28.33 114.355 28.3433 114.272 28.35C114.189 28.3567 114.114 28.36 114.047 28.36H112.327ZM123.337 32H124.557V29.05L127.002 24.8H125.597L123.947 27.67L122.292 24.8H120.887L123.337 29.05V32Z" fill="white"/>
<path d="M4.69812 26.2259C3.79571 31.408 14.9847 34.5172 17.6917 26.2259C19.3158 19.7484 19.6248 18.3893 21.4815 11.8458C23.4665 4.85011 36.2795 7.05247 33.7531 14.955C31.5793 21.7548 31.0148 23.2238 30.5047 26.2259C29.6023 31.5375 40.0693 36.3309 43.6787 25.4486C47.288 12.4936 48.0099 7.95932 48.7317 6.40472C49.4536 4.85011 51.2582 2 58.1159 2C63.6021 2 66.0564 2 66.5978 2H127" stroke="white" stroke-width="3" stroke-linecap="round"/>
<path d="M2.85722 23.6235L12.2859 25.5168C12.8309 25.6262 13.3627 25.2677 13.4686 24.7196L15.3309 15.0807C15.435 14.5419 15.088 14.0222 14.5524 13.9146L5.12364 12.0213C4.57872 11.9119 4.04687 12.2704 3.94097 12.8186L2.0787 22.4574C1.97461 22.9962 2.32164 23.516 2.85722 23.6235Z" fill="white"/>
<ellipse cx="8.51849" cy="18.5789" rx="2.32317" ry="2.36842" fill="#F96822"/>
<path d="M55 8.12766H63.0283V10.3617H57.3189V12.867H62.3726V15.1011H57.3189V17.6383H63.2522V19.8723H55V8.12766Z" fill="white"/>
<path d="M75.1989 18.6915C75.0602 18.8404 74.8417 18.9947 74.5432 19.1543C74.2446 19.3032 73.8981 19.4415 73.5036 19.5691C73.1198 19.6968 72.7253 19.7979 72.3202 19.8723C71.915 19.9574 71.5312 20 71.1687 20C69.9 20 68.7965 19.7553 67.8583 19.266C66.92 18.7766 66.195 18.1064 65.6833 17.2553C65.1822 16.4043 64.9316 15.4309 64.9316 14.3351C64.9316 13.2606 65.0916 12.3298 65.4114 11.5426C65.7419 10.7447 66.1844 10.0851 66.7388 9.56383C67.3039 9.03191 67.9489 8.6383 68.6739 8.38298C69.4095 8.12766 70.1772 8 70.9768 8C71.7338 8 72.4268 8.08511 73.0558 8.25532C73.6849 8.41489 74.218 8.61702 74.6551 8.8617L73.9035 11.016C73.7115 10.9096 73.4557 10.8032 73.1358 10.6968C72.816 10.5904 72.4908 10.5053 72.1603 10.4415C71.8298 10.367 71.5366 10.3298 71.2807 10.3298C70.0119 10.3298 69.0364 10.6489 68.354 11.2872C67.6717 11.9149 67.3305 12.8617 67.3305 14.1277C67.3305 14.8617 67.4958 15.4947 67.8263 16.0266C68.1568 16.5585 68.6152 16.9681 69.2016 17.2553C69.7987 17.5426 70.4757 17.6862 71.2327 17.6862C71.5632 17.6862 71.8671 17.6649 72.1443 17.6223C72.4215 17.5691 72.656 17.4894 72.8479 17.383V15.9628H70.8169V13.7287H75.1989V18.6915Z" fill="white"/>
<path d="M89.3189 10.9681C88.8711 10.7234 88.4127 10.5213 87.9435 10.3617C87.4851 10.2021 87.0533 10.1223 86.6481 10.1223C86.147 10.1223 85.7526 10.2234 85.4647 10.4255C85.1768 10.6277 85.0329 10.9309 85.0329 11.3351C85.0329 11.6117 85.1395 11.8617 85.3528 12.0851C85.5766 12.2979 85.8592 12.4894 86.2004 12.6596C86.5522 12.8298 86.9147 12.984 87.2879 13.1223C87.7463 13.2926 88.1888 13.5106 88.6152 13.7766C89.0417 14.0319 89.3935 14.3883 89.6707 14.8457C89.9479 15.2926 90.0865 15.8883 90.0865 16.633C90.0865 17.2287 89.932 17.7819 89.6228 18.2926C89.3136 18.8032 88.8605 19.2181 88.2634 19.5372C87.6663 19.8457 86.9307 20 86.0564 20C85.3847 20 84.6971 19.8989 83.9934 19.6968C83.3004 19.4947 82.6447 19.1755 82.0263 18.7394L83.0498 16.9362C83.455 17.234 83.9188 17.4787 84.4412 17.6702C84.9636 17.8617 85.4327 17.9574 85.8485 17.9574C86.1257 17.9574 86.4029 17.9202 86.6801 17.8457C86.968 17.7606 87.2026 17.6223 87.3838 17.4309C87.5757 17.2394 87.6717 16.9734 87.6717 16.633C87.6717 16.2819 87.5011 15.9787 87.1599 15.7234C86.8294 15.4574 86.4296 15.234 85.9605 15.0532C85.598 14.9149 85.2248 14.7553 84.841 14.5745C84.4572 14.3936 84.0947 14.1755 83.7535 13.9202C83.423 13.6543 83.1511 13.3298 82.9379 12.9468C82.7353 12.5532 82.634 12.0745 82.634 11.5106C82.634 10.8298 82.7833 10.2394 83.0818 9.73936C83.391 9.23936 83.8228 8.84574 84.3772 8.55851C84.9316 8.26064 85.5713 8.09574 86.2963 8.06383C87.2452 8.06383 88.0128 8.17553 88.5992 8.39894C89.1963 8.62234 89.7294 8.8883 90.1985 9.19681L89.3189 10.9681Z" fill="white"/>
<path d="M102.257 8.12766V19.8723H99.9381V15.1011H94.6765V19.8723H92.3576V8.12766H94.6765V12.867H99.9381V8.12766H102.257Z" fill="white"/>
<path d="M104.569 14.016C104.569 13.2074 104.724 12.4415 105.033 11.7181C105.342 10.9947 105.769 10.3564 106.313 9.80319C106.867 9.23936 107.507 8.79787 108.232 8.47872C108.957 8.15957 109.735 8 110.567 8C111.388 8 112.161 8.15957 112.886 8.47872C113.611 8.79787 114.25 9.23936 114.805 9.80319C115.37 10.3564 115.807 10.9947 116.116 11.7181C116.436 12.4415 116.596 13.2074 116.596 14.016C116.596 14.8457 116.436 15.6223 116.116 16.3457C115.807 17.0691 115.37 17.7074 114.805 18.2606C114.25 18.8032 113.611 19.2287 112.886 19.5372C112.161 19.8457 111.388 20 110.567 20C109.735 20 108.957 19.8457 108.232 19.5372C107.507 19.2287 106.867 18.8032 106.313 18.2606C105.769 17.7074 105.342 17.0691 105.033 16.3457C104.724 15.6223 104.569 14.8457 104.569 14.016ZM106.968 14.016C106.968 14.7074 107.128 15.3404 107.448 15.9149C107.779 16.4787 108.221 16.9309 108.775 17.2713C109.33 17.6011 109.954 17.766 110.647 17.766C111.318 17.766 111.921 17.6011 112.454 17.2713C112.998 16.9309 113.424 16.4787 113.733 15.9149C114.042 15.3404 114.197 14.7074 114.197 14.016C114.197 13.3032 114.037 12.6649 113.717 12.1011C113.397 11.5266 112.966 11.0745 112.422 10.7447C111.878 10.4043 111.265 10.234 110.583 10.234C109.9 10.234 109.287 10.4043 108.743 10.7447C108.2 11.0745 107.768 11.5266 107.448 12.1011C107.128 12.6649 106.968 13.3032 106.968 14.016Z" fill="white"/>
<path d="M122.474 8.12766C123.935 8.12766 125.054 8.48936 125.833 9.21277C126.611 9.92553 127 10.883 127 12.0851C127 12.5638 126.925 13.0479 126.776 13.5372C126.638 14.016 126.408 14.4521 126.088 14.8457C125.779 15.2394 125.358 15.5585 124.825 15.8032C124.303 16.0372 123.658 16.1543 122.89 16.1543H121.227V19.8723H118.908V8.12766H122.474ZM122.874 13.9043C123.343 13.9043 123.706 13.8032 123.961 13.6011C124.228 13.3883 124.415 13.1436 124.521 12.867C124.628 12.5904 124.681 12.3511 124.681 12.1489C124.681 12.0319 124.66 11.8777 124.617 11.6862C124.585 11.484 124.51 11.2819 124.393 11.0798C124.276 10.8777 124.095 10.7074 123.849 10.5691C123.615 10.4309 123.295 10.3617 122.89 10.3617H121.227V13.9043H122.874Z" fill="white"/>
</svg>
